<svg version="1.1" xmlns="http://www.w3.org/2000/svg" xmlns:xlink="http://www.w3.org/1999/xlink" viewBox="0 0 172 172"><g fill="none" fill-rule="nonzero" stroke="none" stroke-width="1" stroke-linecap="butt" stroke-linejoin="miter" stroke-miterlimit="10" stroke-dasharray="" stroke-dashoffset="0" font-family="none" font-weight="none" font-size="none" text-anchor="none" style="mix-blend-mode: normal"><path d="M0,172v-172h172v172z" fill="none"></path><g fill="#3b78fe"><path d="M22.93333,17.2c-6.33533,0 -11.46667,5.13133 -11.46667,11.46667v17.2v86c0,6.33533 5.13133,11.46667 11.46667,11.46667h126.13333c6.33533,0 11.46667,-5.13133 11.46667,-11.46667v-91.73333c0,-6.33533 -5.13133,-11.46667 -11.46667,-11.46667h-84.85781l-3.53854,-5.9013c-2.06973,-3.45147 -5.80124,-5.56536 -9.83177,-5.56536zM57.33333,57.33333c1.4663,0 2.93278,0.55882 4.05364,1.67969l22.93333,22.93333c2.24173,2.24173 2.24173,5.86556 0,8.10729l-22.93333,22.93333c-1.118,1.118 -2.58591,1.67969 -4.05364,1.67969c-1.46773,0 -2.93565,-0.56169 -4.05365,-1.67969c-2.24173,-2.24173 -2.24173,-5.86556 0,-8.10729l18.87969,-18.87969l-18.87969,-18.87969c-2.24173,-2.24173 -2.24173,-5.86556 0,-8.10729c1.12087,-1.12087 2.58735,-1.67969 4.05365,-1.67969zM91.73333,103.2h22.93333c3.17053,0 5.73333,2.5628 5.73333,5.73333c0,3.17053 -2.5628,5.73333 -5.73333,5.73333h-22.93333c-3.17053,0 -5.73333,-2.5628 -5.73333,-5.73333c0,-3.17053 2.5628,-5.73333 5.73333,-5.73333z"></path></g></g></svg>