<svg version="1.1" xmlns="http://www.w3.org/2000/svg" xmlns:xlink="http://www.w3.org/1999/xlink" viewBox="0 0 172 172"><g fill="none" fill-rule="nonzero" stroke="none" stroke-width="1" stroke-linecap="butt" stroke-linejoin="miter" stroke-miterlimit="10" stroke-dasharray="" stroke-dashoffset="0" font-family="none" font-weight="none" font-size="none" text-anchor="none" style="mix-blend-mode: normal"><path d="M0,172v-172h172v172z" fill="none"></path><g fill="#3b78fe"><path d="M68.71042,-0.07839c-3.16203,0.04943 -5.68705,2.6496 -5.64375,5.81172v5.73333c-0.02924,2.06765 1.05709,3.99087 2.843,5.03322c1.78592,1.04236 3.99474,1.04236 5.78066,0c1.78592,-1.04236 2.87225,-2.96558 2.843,-5.03322v-5.73333c0.02122,-1.54972 -0.58581,-3.04203 -1.68279,-4.1369c-1.09698,-1.09487 -2.59045,-1.69903 -4.14013,-1.67482zM40.07734,11.41068c-2.33303,0.00061 -4.43307,1.41473 -5.31096,3.57628c-0.8779,2.16155 -0.3586,4.6395 1.31331,6.26669l5.73333,5.73333c1.43802,1.49775 3.57339,2.10107 5.58257,1.57728c2.00918,-0.52378 3.57822,-2.09283 4.10201,-4.10201c0.52378,-2.00918 -0.07954,-4.14455 -1.57728,-5.58257l-5.73333,-5.73333c-1.07942,-1.10959 -2.56163,-1.73559 -4.10963,-1.73568zM97.35469,11.41068c-1.48951,0.04438 -2.90324,0.6669 -3.94167,1.73568l-5.73333,5.73333c-1.49776,1.43802 -2.1011,3.57339 -1.57732,5.58258c0.52378,2.00919 2.09283,3.57824 4.10202,4.10202c2.00919,0.52378 4.14456,-0.07955 5.58258,-1.57731l5.73333,-5.73333c1.69569,-1.64828 2.20555,-4.16851 1.28389,-6.3463c-0.92166,-2.17779 -3.08576,-3.56638 -5.44951,-3.49667zM133.09844,17.32318c-2.72978,-0.20783 -5.52478,0.73494 -7.61458,2.82188l-62.39479,62.39479c0,0 -10.06065,-18.93487 -15.10599,-23.98593c-8.80067,-8.79494 -22.27382,-9.55066 -26.76302,-5.06146l-2.38516,2.37396c-2.0984,2.0984 -2.0984,5.49379 0,7.59219l12.11615,12.11615l6.60677,27.77083c1.77733,7.45907 5.58382,14.2846 11.00755,19.70833l24.33307,24.32187c9.78107,9.78107 25.62674,9.78107 35.40781,0l6.96511,-6.96511l30.58151,-30.58151c3.4228,-3.4228 4.2544,-8.95027 1.42214,-12.87761c-3.612,-5.01093 -10.64097,-5.42257 -14.81484,-1.24297l3.07942,-3.07942c3.42853,-3.42853 4.2544,-8.93908 1.42214,-12.86641c-3.612,-5.01093 -10.63524,-5.42803 -14.81484,-1.25417l3.06823,-3.06823c3.42853,-3.42853 4.2544,-8.95027 1.42214,-12.87761c-3.612,-5.01093 -10.63525,-5.41683 -14.81485,-1.24297l27.05417,-27.05416c3.42853,-3.42853 4.2544,-8.93907 1.42214,-12.86641c-1.806,-2.50547 -4.47047,-3.86821 -7.20026,-4.07604z"></path></g></g></svg>