<svg version="1.1" xmlns="http://www.w3.org/2000/svg" xmlns:xlink="http://www.w3.org/1999/xlink" viewBox="0 0 172 172"><g fill="none" fill-rule="nonzero" stroke="none" stroke-width="1" stroke-linecap="butt" stroke-linejoin="miter" stroke-miterlimit="10" stroke-dasharray="" stroke-dashoffset="0" font-family="none" font-weight="none" font-size="none" text-anchor="none" style="mix-blend-mode: normal"><path d="M0,172v-172h172v172z" fill="none"></path><g fill="#3b78fe"><path d="M41.28,6.88c-11.38296,0 -20.64,9.25704 -20.64,20.64v118.39781c0,10.58832 9.25704,19.20219 20.64,19.20219h106.64c1.89888,0 3.44,-1.53768 3.44,-3.44c0,-1.90232 -1.54112,-3.44 -3.44,-3.44h-106.64c-7.45792,0 -13.76,-5.64171 -13.76,-12.32219c0,-6.59104 6.04408,-11.75781 13.76,-11.75781h106.64c1.89888,0 3.44,-1.53768 3.44,-3.44v-120.4c0,-1.90232 -1.54112,-3.44 -3.44,-3.44zM89.44,30.96c15.17384,0 27.52,12.34616 27.52,27.52c0,19.87976 -24.61498,50.04088 -24.8661,50.3436c-0.65016,0.79464 -1.62534,1.2564 -2.6539,1.2564c-1.02856,0 -2.00374,-0.46176 -2.6539,-1.2564c-0.25112,-0.30272 -24.8661,-30.46384 -24.8661,-50.3436c0,-15.17384 12.34616,-27.52 27.52,-27.52zM89.44,48.16c-5.69958,0 -10.32,4.62042 -10.32,10.32c0,5.69958 4.62042,10.32 10.32,10.32c5.69958,0 10.32,-4.62042 10.32,-10.32c0,-5.69958 -4.62042,-10.32 -10.32,-10.32z"></path></g></g></svg>