<svg version="1.1" xmlns="http://www.w3.org/2000/svg" xmlns:xlink="http://www.w3.org/1999/xlink" viewBox="0 0 172 172"><g fill="none" fill-rule="nonzero" stroke="none" stroke-width="1" stroke-linecap="butt" stroke-linejoin="miter" stroke-miterlimit="10" stroke-dasharray="" stroke-dashoffset="0" font-family="none" font-weight="none" font-size="none" text-anchor="none" style="mix-blend-mode: normal"><path d="M0,172v-172h172v172z" fill="none"></path><g fill="#3b78fe"><path d="M80.7325,7.095c-7.21594,0.20156 -14.20344,1.35719 -20.64,3.5475c-3.62812,1.22281 -5.57656,5.13313 -4.35375,8.76125c1.22281,3.62813 5.13313,5.57656 8.76125,4.35375c13.08813,-4.46125 32.11563,-3.655 46.5475,2.795c3.46688,1.54531 7.53844,-0.02687 9.08375,-3.49375c1.54531,-3.46687 -0.02687,-7.53844 -3.49375,-9.08375c-8.94937,-4.00437 -18.82594,-6.20812 -28.595,-6.7725c-2.44562,-0.13437 -4.90469,-0.17469 -7.31,-0.1075zM44.6125,20.5325c-0.25531,0.02688 -0.49719,0.05375 -0.7525,0.1075c-1.08844,0.14781 -2.10969,0.55094 -3.01,1.1825c-11.40844,7.60563 -20.55937,18.3825 -27.52,30.1c-1.43781,2.12313 -1.57219,4.86438 -0.36281,7.10844c1.20938,2.2575 3.57438,3.655 6.1275,3.62813c2.56656,-0.02688 4.89125,-1.46469 6.06031,-3.74906c6.11406,-10.29312 14.20344,-19.53812 23.435,-25.6925c2.63375,-1.66625 3.81625,-4.89125 2.87563,-7.87437c-0.92719,-2.96969 -3.73563,-4.945 -6.85313,-4.81063zM130.075,23.9725c-2.96969,0.18813 -5.4825,2.28438 -6.22156,5.17344c-0.73906,2.88906 0.47031,5.92594 2.99656,7.51156c10.77688,7.26969 22.29281,29.52219 24.51,50.095c0.41656,3.80281 3.82969,6.54406 7.6325,6.1275c3.80281,-0.41656 6.54406,-3.82969 6.1275,-7.6325c-2.59344,-24.14719 -13.78687,-48.68406 -30.53,-59.985c-1.12875,-0.80625 -2.48594,-1.26312 -3.87,-1.29c-0.215,-0.01344 -0.43,-0.01344 -0.645,0zM85.0325,27.52c-3.80281,0.14781 -6.75906,3.34594 -6.61125,7.14875c0.14781,3.80281 3.34594,6.75906 7.14875,6.61125c14.24375,0.86 23.82469,5.40188 30.8525,11.9325c7.02781,6.53063 11.61,15.33219 14.2975,25.155c5.36156,19.64563 2.88906,43.02688 0.215,54.18c-0.81969,2.45906 -0.17469,5.17344 1.65281,7.01438c1.8275,1.84094 4.52844,2.49937 7.00094,1.69312c2.4725,-0.80625 4.27313,-2.91594 4.67625,-5.4825c3.18469,-13.27625 6.00656,-37.86687 -0.3225,-61.06c-3.17125,-11.59656 -8.66719,-22.88406 -18.06,-31.605c-9.39281,-8.72094 -22.575,-14.56625 -39.4525,-15.5875c-0.47031,-0.05375 -0.92719,-0.05375 -1.3975,0zM68.6925,29.5625c-0.63156,0.05375 -1.23625,0.20156 -1.8275,0.43c-14.84844,5.07938 -26.49875,15.72188 -34.7225,28.0575c-2.13656,3.14438 -1.31687,7.43094 1.8275,9.5675c3.14438,2.13656 7.43094,1.31688 9.5675,-1.8275c6.90688,-10.36031 16.555,-18.92 27.8425,-22.79c3.41313,-1.00781 5.4825,-4.46125 4.78375,-7.94156c-0.69875,-3.49375 -3.93719,-5.87219 -7.47125,-5.49594zM85.0325,47.945c-11.03219,0.20156 -18.82594,4.47469 -23.9725,8.6c-2.96969,2.37844 -3.45344,6.70531 -1.075,9.675c2.37844,2.96969 6.70531,3.45344 9.675,1.075c4.43438,-3.5475 8.85531,-6.26187 19.2425,-5.375c3.80281,0.29563 7.12188,-2.53969 7.4175,-6.3425c0.29563,-3.80281 -2.53969,-7.12187 -6.3425,-7.4175c-1.70656,-0.14781 -3.37281,-0.24187 -4.945,-0.215zM106.1025,54.9325c-2.80844,0.17469 -5.22719,2.05594 -6.10062,4.73c-0.88688,2.67406 -0.04031,5.61688 2.12312,7.4175c4.87781,4.25969 8.43875,12.3625 10.2125,21.715c1.77375,9.3525 1.8275,19.72625 1.1825,27.6275c-0.29562,3.80281 2.53969,7.12188 6.3425,7.4175c3.80281,0.29563 7.12188,-2.53969 7.4175,-6.3425c0.72563,-8.94937 0.59125,-20.25031 -1.505,-31.2825c-2.09625,-11.03219 -6.08719,-22.01062 -14.62,-29.455c-1.20937,-1.11531 -2.76812,-1.76031 -4.4075,-1.8275c-0.215,-0.01344 -0.43,-0.01344 -0.645,0zM51.0625,68.6925c-2.78156,0.215 -5.16,2.08281 -6.02,4.73c-2.09625,6.14094 -5.9125,13.04781 -11.18,18.06c-5.2675,5.01219 -11.65031,8.2775 -20.1025,8.2775c-2.48594,-0.04031 -4.78375,1.26313 -6.03344,3.41313c-1.26313,2.13656 -1.26313,4.79719 0,6.93375c1.24969,2.15 3.5475,3.45344 6.03344,3.41312c12.18781,0 22.26594,-5.09281 29.5625,-12.04c7.29656,-6.94719 12.12063,-15.57406 14.835,-23.5425c0.81969,-2.21719 0.44344,-4.70312 -0.99437,-6.58437c-1.43781,-1.88125 -3.74906,-2.87563 -6.10063,-2.66063zM82.56,68.8c-6.45,0 -11.98625,2.74125 -15.5875,6.3425c-3.60125,3.60125 -5.65719,7.65938 -7.4175,11.18c-1.23625,2.20375 -1.16906,4.90469 0.17469,7.04125c1.35719,2.13656 3.7625,3.35938 6.28875,3.19813c2.51281,-0.17469 4.74344,-1.70656 5.79156,-4.00438c1.67969,-3.35937 3.27875,-6.18125 4.8375,-7.74c1.55875,-1.55875 2.74125,-2.2575 5.9125,-2.2575c2.86219,0 4.64938,0.90031 6.45,2.58c1.80063,1.67969 3.38625,4.27313 4.3,6.88c0.57781,2.59344 2.59344,4.60906 5.17344,5.20031c2.58,0.60469 5.28094,-0.34938 6.93375,-2.41875c1.63938,-2.06938 1.94844,-4.91813 0.79281,-7.29656c-1.49156,-4.27312 -3.85656,-8.72094 -7.74,-12.3625c-3.88344,-3.64156 -9.48687,-6.3425 -15.91,-6.3425zM26.875,72.1325c-2.48594,0.28219 -4.6225,1.88125 -5.59,4.1925c-0.43,0.98094 -1.35719,2.23063 -4.73,2.9025c-3.73562,0.73906 -6.16781,4.38063 -5.42875,8.11625c0.73906,3.73563 4.38063,6.16781 8.11625,5.42875c6.94719,-1.38406 12.20125,-5.64375 14.5125,-10.8575c1.04813,-2.23062 0.83313,-4.86437 -0.59125,-6.89344c-1.42437,-2.01563 -3.82969,-3.13094 -6.28875,-2.88906zM82.345,92.7725c-2.98312,0.12094 -5.54969,2.16344 -6.3425,5.0525c-9.63469,33.09656 -29.38781,40.27219 -44.505,47.3c-2.31125,0.99438 -3.88344,3.15781 -4.13875,5.64375c-0.24187,2.49938 0.88688,4.93156 2.95625,6.35594c2.06938,1.41094 4.74344,1.59906 6.9875,0.47031c14.45875,-6.73219 40.80969,-18.14062 51.815,-55.9c0.65844,-2.12312 0.25531,-4.43437 -1.08844,-6.20812c-1.34375,-1.77375 -3.46688,-2.78156 -5.68406,-2.71438zM57.9425,99.6525c-2.05594,0.20156 -3.89687,1.30344 -5.0525,3.01c-9.20469,12.76563 -27.64094,21.1775 -35.69,21.1775c-2.48594,-0.04031 -4.78375,1.26313 -6.03344,3.41313c-1.26313,2.13656 -1.26313,4.79719 0,6.93375c1.24969,2.15 3.5475,3.45344 6.03344,3.41312c15.33219,0 34.74938,-10.17219 46.87,-26.9825c1.53188,-2.08281 1.77375,-4.85094 0.61813,-7.16219c-1.15563,-2.31125 -3.52063,-3.77594 -6.10063,-3.80281c-0.215,-0.01344 -0.43,-0.01344 -0.645,0zM99.2225,103.0925c-3.23844,0.28219 -5.84531,2.795 -6.235,6.02c-5.06594,36.13344 -30.315,46.225 -30.315,46.225c-3.50719,1.47813 -5.13312,5.52281 -3.655,9.03c1.47813,3.50719 5.52281,5.13313 9.03,3.655c0,0 32.54563,-14.67375 38.485,-56.975c0.33594,-2.08281 -0.29562,-4.1925 -1.73344,-5.75125c-1.42438,-1.54531 -3.48031,-2.365 -5.57656,-2.20375zM116.53,130.6125c-3.01,0.20156 -5.53625,2.33813 -6.235,5.2675c-3.78937,14.55281 -13.76,19.78 -13.76,19.78c-2.48594,0.9675 -4.17906,3.26531 -4.38062,5.9125c-0.18813,2.66063 1.16906,5.18688 3.48031,6.49031c2.31125,1.31687 5.17344,1.16906 7.35031,-0.36281c0,0 15.48,-8.53281 20.64,-28.38c0.59125,-2.15 0.12094,-4.46125 -1.29,-6.19469c-1.41094,-1.72 -3.57437,-2.66063 -5.805,-2.51281z"></path></g></g></svg>