<svg version="1.1" xmlns="http://www.w3.org/2000/svg" xmlns:xlink="http://www.w3.org/1999/xlink" viewBox="0 0 172 172"><g fill="none" fill-rule="nonzero" stroke="none" stroke-width="1" stroke-linecap="butt" stroke-linejoin="miter" stroke-miterlimit="10" stroke-dasharray="" stroke-dashoffset="0" font-family="none" font-weight="none" font-size="none" text-anchor="none" style="mix-blend-mode: normal"><path d="M0,172v-172h172v172z" fill="none"></path><g fill="#3b78fe"><path d="M64.285,0c-17.76437,0 -25.73281,31.05406 -32.035,56.975c-21.40594,4.86438 -32.25,11.7175 -32.25,20.425c0,8.31781 10.45438,14.70063 26.1225,19.0275c-0.36281,1.22281 -0.645,2.66063 -0.645,4.4075c0,1.90813 0.38969,4.00438 1.075,6.235c-6.81281,3.74906 -16.59531,10.81719 -25.9075,23.65c-0.5375,0.7525 -0.79281,1.66625 -0.645,2.58c0.14781,0.91375 0.7525,1.73344 1.505,2.2575l30.6375,21.715l-7.31,9.1375c-0.81969,1.03469 -0.99437,2.45906 -0.43,3.655c0.56438,1.1825 1.80063,1.935 3.1175,1.935h116.96c0.02688,0 0.08063,0 0.1075,0c1.90813,0 3.44,-1.53187 3.44,-3.44c0,-1.03469 -0.45687,-1.94844 -1.1825,-2.58l-6.9875,-8.7075l30.6375,-21.715c0.7525,-0.5375 1.35719,-1.35719 1.505,-2.2575c0.14781,-0.91375 -0.1075,-1.8275 -0.645,-2.58c-9.31219,-12.84625 -19.10812,-19.90094 -25.9075,-23.65c0.69875,-2.31125 1.075,-4.60906 1.075,-6.665c0,-1.65281 -0.215,-2.91594 -0.5375,-4.085c15.60094,-4.32687 26.015,-10.62906 26.015,-18.92c0,-8.7075 -10.83062,-15.56062 -32.25,-20.425l-0.3225,-1.1825c-0.92719,-3.655 -1.90812,-7.37719 -2.9025,-11.0725c0,-0.09406 0,-0.215 0,-0.3225h-0.1075c-6.10062,-22.65562 -13.71969,-44.3975 -28.7025,-44.3975c-5.11969,0 -8.9225,1.98875 -12.255,3.7625c-3.10406,1.65281 -5.805,3.1175 -9.46,3.1175c-3.655,0 -6.35594,-1.46469 -9.46,-3.1175c-3.3325,-1.77375 -7.13531,-3.7625 -12.255,-3.7625zM40.42,52.3525c8.57313,6.50375 27.60063,9.5675 45.58,9.5675c17.88531,0 36.69781,-3.01 45.4725,-9.3525c0.41656,1.63938 0.88688,3.25188 1.29,4.8375l0.9675,3.655c-1.43781,4.20594 -19.29625,11.18 -47.73,11.18c-28.40687,0 -46.15781,-6.97406 -47.6225,-11.18l0.1075,-0.43c0.63156,-2.58 1.19594,-5.36156 1.935,-8.2775zM32.7875,98.04c4.82406,1.075 9.94375,1.94844 15.3725,2.6875v1.075c0,8.68063 5.93938,18.18094 16.985,18.5975c0.37625,0.02688 0.80625,0 1.1825,0c4.16563,0 8.02219,-1.15562 10.8575,-3.3325c2.45906,-1.89469 5.375,-5.53625 5.375,-11.825v-2.0425c1.15563,0.01344 2.28438,0 3.44,0c1.14219,0 2.29781,0.01344 3.44,0v2.0425c0,10.48125 8.14313,15.1575 16.2325,15.1575c0.37625,0 0.73906,0.02688 1.075,0c11.08594,-0.41656 17.0925,-9.91687 17.0925,-18.5975v-1.075c5.46906,-0.73906 10.62906,-1.6125 15.48,-2.6875c0.18813,0.63156 0.3225,1.31688 0.3225,2.365c0,1.84094 -0.45687,3.96406 -1.1825,5.9125c-1.49156,4.03125 -4.21937,7.64594 -7.095,7.955l-2.0425,0.215l-0.7525,1.8275c-9.7825,24.28156 -22.41375,49.16781 -42.57,48.805c-21.09687,-0.3225 -34.37312,-27.74844 -42.57,-48.375l-0.7525,-1.935l-2.0425,-0.215c-2.52625,-0.28219 -5.4825,-4.085 -7.095,-8.2775c-0.71219,-1.85437 -1.1825,-3.74906 -1.1825,-5.4825c0,-1.24969 0.18813,-2.16344 0.43,-2.795z"></path></g></g></svg>