<svg version="1.1" xmlns="http://www.w3.org/2000/svg" xmlns:xlink="http://www.w3.org/1999/xlink" viewBox="0 0 172 172"><g fill="none" fill-rule="nonzero" stroke="none" stroke-width="1" stroke-linecap="butt" stroke-linejoin="miter" stroke-miterlimit="10" stroke-dasharray="" stroke-dashoffset="0" font-family="none" font-weight="none" font-size="none" text-anchor="none" style="mix-blend-mode: normal"><path d="M0,172v-172h172v172z" fill="none"></path><g fill="#3b78fe"><path d="M106.07226,21.5c-6.321,-0.1075 -12.02388,3.04651 -15.90104,8.03451c-14.26167,18.34667 12.14459,39.90434 18.33659,45.6735c2.89533,2.69467 6.32066,5.46693 8.97233,7.5166c2.56567,1.99233 6.14072,1.99233 8.70638,0c2.65167,-2.05683 6.08416,-4.82193 8.97233,-7.5166c6.192,-5.76917 32.59826,-27.334 18.33659,-45.6735c-3.87717,-4.988 -9.58004,-8.13484 -15.90104,-8.03451c-10.14083,0.172 -15.76107,7.48861 -15.76107,7.48861c0,0 -5.62024,-7.31661 -15.76107,-7.48861zM21.5,64.5c-3.956,0 -7.16667,3.21067 -7.16667,7.16667v3.58333v64.5v3.58333c0,3.956 3.21067,7.16667 7.16667,7.16667h3.58333h121.83333h3.58333c3.956,0 7.16667,-3.21067 7.16667,-7.16667v-3.58333v-53.75c0,-3.956 -3.21067,-7.16667 -7.16667,-7.16667c-3.956,0 -7.16667,3.21067 -7.16667,7.16667v43.62989c-3.05239,1.08296 -5.45382,3.48439 -6.53678,6.53678h-101.5931c-1.08296,-3.05239 -3.4844,-5.45382 -6.53678,-6.53678v-44.25977c3.05239,-1.08296 5.45383,-3.48439 6.53678,-6.53678h43.62988c3.956,0 7.16667,-3.21067 7.16667,-7.16667c0,-3.956 -3.21067,-7.16667 -7.16667,-7.16667h-53.75zM86,86c-11.87412,0 -21.5,9.62588 -21.5,21.5c0,11.87412 9.62588,21.5 21.5,21.5c11.87412,0 21.5,-9.62588 21.5,-21.5c0,-11.87412 -9.62588,-21.5 -21.5,-21.5zM50.16667,100.33333c-3.956,0 -7.16667,3.2035 -7.16667,7.16667c0,3.96317 3.21067,7.16667 7.16667,7.16667c3.956,0 7.16667,-3.2035 7.16667,-7.16667c0,-3.96317 -3.21067,-7.16667 -7.16667,-7.16667zM121.83333,100.33333c-3.956,0 -7.16667,3.2035 -7.16667,7.16667c0,3.96317 3.21067,7.16667 7.16667,7.16667c3.956,0 7.16667,-3.2035 7.16667,-7.16667c0,-3.96317 -3.21067,-7.16667 -7.16667,-7.16667z"></path></g></g></svg>