<svg version="1.1" xmlns="http://www.w3.org/2000/svg" xmlns:xlink="http://www.w3.org/1999/xlink" viewBox="0 0 172 172"><g fill="none" fill-rule="nonzero" stroke="none" stroke-width="1" stroke-linecap="butt" stroke-linejoin="miter" stroke-miterlimit="10" stroke-dasharray="" stroke-dashoffset="0" font-family="none" font-weight="none" font-size="none" text-anchor="none" style="mix-blend-mode: normal"><path d="M0,172v-172h172v172z" fill="none"></path><g fill="#3b78fe"><path d="M154.67683,17.32318c0,0 -51.47683,-0.12318 -91.61016,40.01016c-1.85295,1.85295 -3.46634,3.87014 -4.92708,5.95729c-7.11553,-0.56892 -18.0076,-0.38307 -23.58281,5.19583c-13.01467,13.01467 -17.35677,34.71354 -17.35677,34.71354l28.66667,-4.09844v9.83177l17.2,17.2h9.83177l-4.09844,28.66667c0,0 21.69888,-4.34211 34.71354,-17.35677c5.5789,-5.57521 5.76476,-16.46728 5.19583,-23.58281c2.08715,-1.46074 4.10434,-3.07413 5.95729,-4.92708c40.13333,-40.13333 40.01016,-91.61016 40.01016,-91.61016zM108.93333,51.6c6.33533,0 11.46667,5.13133 11.46667,11.46667c0,6.33533 -5.13133,11.46667 -11.46667,11.46667c-6.33533,0 -11.46667,-5.13133 -11.46667,-11.46667c0,-6.33533 5.13133,-11.46667 11.46667,-11.46667zM41.27552,114.64427c-2.17867,0.57333 -4.24329,1.66777 -5.94609,3.37057c-7.83173,7.83173 -6.58437,25.22891 -6.58437,25.22891c0,0 17.28277,1.35056 25.21771,-6.58437c1.7028,-1.70281 2.79724,-3.77863 3.37057,-5.95729l-2.62031,-2.62031c-0.258,0.36693 -0.41773,0.79299 -0.75026,1.11979c-5.59,5.59 -13.975,2.79948 -13.975,2.79948c0,0 -2.79625,-8.385 2.79948,-13.975c0.33253,-0.33253 0.74166,-0.48653 1.10859,-0.75026z"></path></g></g></svg>