<svg version="1.1" xmlns="http://www.w3.org/2000/svg" xmlns:xlink="http://www.w3.org/1999/xlink" viewBox="0 0 172 172"><g fill="none" fill-rule="nonzero" stroke="none" stroke-width="1" stroke-linecap="butt" stroke-linejoin="miter" stroke-miterlimit="10" stroke-dasharray="" stroke-dashoffset="0" font-family="none" font-weight="none" font-size="none" text-anchor="none" style="mix-blend-mode: normal"><path d="M0,172v-172h172v172z" fill="none"></path><g fill="#3b78fe"><path d="M89.44,6.88c-13.30312,0 -24.08,10.77688 -24.08,24.08c0,20.57281 44.72,51.6 44.72,51.6c0,0 44.72,-31.18844 44.72,-51.6c0,-13.30312 -10.77687,-24.08 -24.08,-24.08c-8.77469,0 -16.43406,4.70313 -20.64,11.7175c-4.20594,-7.01437 -11.86531,-11.7175 -20.64,-11.7175zM158.3475,92.9875c-2.48594,0.16125 -4.90469,1.24969 -6.7725,3.1175l-34.615,34.615h-34.4l-6.88,-6.88l26.445,-5.2675c3.85656,-0.76594 7.02781,-3.655 7.74,-7.525c1.10188,-6.00656 -3.44,-11.2875 -9.245,-11.2875h-47.945c-7.29656,0 -14.2975,2.9025 -19.4575,8.0625l-29.7775,29.7775l30.96,30.96l11.7175,-11.7175c1.29,-1.29 3.01,-2.0425 4.8375,-2.0425h63.7475c3.655,0 7.095,-1.505 9.675,-4.085l41.28,-41.28c3.92375,-3.92375 3.85656,-10.32 -0.3225,-14.0825c-1.96187,-1.76031 -4.50156,-2.52625 -6.9875,-2.365z"></path></g></g></svg>